<?xml version="1.0" encoding="utf-8"?>
<!-- Generator: Adobe Illustrator 23.0.2, SVG Export Plug-In . SVG Version: 6.00 Build 0)  -->
<svg version="1.1" id="Calque_1" xmlns="http://www.w3.org/2000/svg" xmlns:xlink="http://www.w3.org/1999/xlink" x="0px" y="0px"
	 width="201px" height="77px" viewBox="0 0 201 77" style="enable-background:new 0 0 201 77;" xml:space="preserve">
<style type="text/css">
	.st0{fill:#E78AA8;}
</style>
<g>
	<path class="st0" d="M82.66,47.43c0-0.57,0.4-2.11,0.74-3.65c0.68-2.91,1.54-6.78,1.54-9.81c0-0.63,0-2.62-0.85-3.48
		c-0.17-0.28-0.28-0.57-0.28-0.91c0-0.68,0.57-1.25,1.31-1.25c1.2,0,2.57,2.45,2.11,6.1c1.77-4.28,4.05-5.7,6.33-5.7
		c1.99,0,4.39,1.42,4.62,6.56c1.48-4.39,3.76-6.67,6.84-6.67c2.57,0.06,4.73,2.39,4.73,8.55c0,4.1-1.03,8.72-1.54,10.77
		c-0.23,0.51-0.68,0.91-1.25,0.91c-0.74,0-1.31-0.63-1.31-1.31c0-0.11,0-0.23,0.06-0.34c0.57-1.94,1.54-6.21,1.54-9.92
		c0-3.14-0.57-6.1-2.51-6.1c-3.19,0-6.16,6.16-7.24,12.83c-0.63,3.88-0.68,4.33-1.71,4.33c-0.74,0-1.25-0.63-1.25-1.31
		c0-0.23,0.28-1.94,0.51-3.14c0.4-2.51,0.74-4.9,0.74-7.13c0-1.25-0.06-5.53-2.51-5.53c-2.96,0-6.33,6.61-8.21,16.47
		c-0.11,0.63-0.57,1.03-1.2,1.03C83.12,48.74,82.66,48.17,82.66,47.43"/>
	<path class="st0" d="M128.21,18.58c0.23-0.06,0.51-0.17,0.68-0.17c0.57,0,1.03,0.34,1.03,0.97c0,0.57-0.34,1.14-1.14,1.77
		c-1.54,1.14-4.28,3.36-5.64,4.33c-0.4,0.28-0.74,0.34-1.03,0.34c-0.46,0-0.85-0.57-0.85-1.03c0-0.4,0.17-0.74,0.46-0.97
		c1.88-1.48,3.76-2.91,5.13-4.1C127.13,19.5,127.69,18.98,128.21,18.58 M125.64,33.23c0-1.14-0.8-1.94-2.28-1.94
		c-2.85,0-6.9,3.65-6.9,9.75c0,1.94,0.63,5.42,4.73,5.42c1.48,0,3.02-0.68,3.99-1.88c0.23-0.28,0.51-0.46,0.91-0.46
		c0.68,0,1.14,0.57,1.14,1.31c0,1.08-2.74,3.36-6.21,3.36c-4.33,0-7.13-2.91-7.13-7.75c0-7.18,5.02-12.2,9.52-12.2
		c3.42,0,4.79,2.11,4.79,4.39c0,4.5-4.73,6.73-8.09,6.73c-0.68,0-1.25-0.46-1.25-1.2c0-0.63,0.51-1.2,1.25-1.25
		C122.79,37.45,125.64,35.8,125.64,33.23"/>
	<path class="st0" d="M138.81,17.21c0,2.85,2.57,5.53,5.99,6.44c0-6.84-2.56-9.18-4.05-9.18C139.44,14.48,138.81,16.07,138.81,17.21
		 M131.17,39.79c0-5.3,2.96-11.06,7.7-11.06c2.39,0,4.22,1.71,4.22,2.79c0,0.68-0.57,1.25-1.25,1.25c-0.4,0-0.86-0.23-1.08-0.63
		c-0.28-0.46-1.03-0.85-1.88-0.85c-2.96,0-5.19,4.28-5.19,8.49c0,3.88,1.54,6.56,3.88,6.56c4.79,0,7.07-9.8,7.18-20.18
		c-4.79-1.25-8.49-4.79-8.49-8.89c0-2.51,1.71-5.19,4.62-5.19c1.14,0,2.34,0.46,3.31,1.43c2.96,2.85,3.19,9.46,3.13,10.66
		c0.63,0.11,1.37,0.23,2.11,0.28c0.68,0.11,1.08,0.46,1.08,1.14c0,0.63-0.63,1.2-1.03,1.2c-0.68,0-1.43-0.06-2.22-0.23
		c-0.11,7.3-1.43,16.3-5.3,20.18c-1.25,1.25-2.74,1.94-4.45,1.94C133.97,48.68,131.17,45.26,131.17,39.79"/>
	<path class="st0" d="M154.2,31.01c-0.57,2.51-1.37,6.44-1.37,9.98c0,2.62,0.51,5.36,2.39,5.36c3.65,0,6.96-7.41,8.21-16.42
		c0.11-0.68,0.63-1.08,1.48-1.08c0.57,0,1.03,0.74,0.91,1.42c-0.06,0.57-0.4,2.74-0.8,4.67c-0.51,3.08-0.97,5.7-0.97,7.7
		c0,1.82,0.34,3.08,1.14,3.93c0.23,0.28,0.28,0.57,0.28,0.85c0,0.68-0.57,1.25-1.25,1.25c-1.2,0-2.62-2.39-2.57-5.59
		c-1.48,3.53-3.93,5.7-6.44,5.7c-2.05,0-4.9-1.31-4.9-7.81c0-3.82,0.85-8.09,1.25-10.15c0.11-0.51,0.28-1.42,1.31-1.42
		c0.74,0,1.31,0.63,1.31,1.31V31.01z"/>
	<path class="st0" d="M174.61,41.67c0,0.97-0.8,1.14-1.14,1.08c-0.34-0.06-0.51-0.17-0.91-0.17c-1.08,0-1.37,0.85-1.37,1.65
		c0,1.37,1.65,2.74,3.71,2.74s4.22-1.2,4.22-3.76c0-1.37-0.68-2.96-3.25-4.33c-1.82-0.97-4.16-2.51-4.16-5.36
		c0-2.34,1.88-4.79,5.42-4.79c3.42,0,4.73,2.45,4.73,3.42c0,0.74-0.57,1.31-1.31,1.31c-0.34,0-0.91-0.28-1.03-0.74
		c-0.17-0.57-0.97-1.82-2.45-1.82c-1.82,0-2.85,1.14-2.85,2.62c0,1.08,0.51,1.77,2.79,3.14c2.79,1.65,4.67,3.31,4.67,6.21
		c0,3.53-2.51,6.16-6.84,6.16c-3.25,0-6.21-1.88-6.21-4.73c0-2.39,1.77-4.1,3.93-4.1C173.59,40.19,174.61,40.53,174.61,41.67"/>
	<path class="st0" d="M197.41,33.23c0-1.14-0.8-1.94-2.28-1.94c-2.85,0-6.9,3.65-6.9,9.75c0,1.94,0.63,5.42,4.73,5.42
		c1.48,0,3.02-0.68,3.99-1.88c0.23-0.28,0.51-0.46,0.91-0.46c0.68,0,1.14,0.57,1.14,1.31c0,1.08-2.74,3.36-6.21,3.36
		c-4.33,0-7.13-2.91-7.13-7.75c0-7.18,5.02-12.2,9.52-12.2c3.42,0,4.79,2.11,4.79,4.39c0,4.5-4.73,6.73-8.09,6.73
		c-0.68,0-1.25-0.46-1.25-1.2c0-0.63,0.51-1.2,1.25-1.25C194.56,37.45,197.41,35.8,197.41,33.23"/>
	<path class="st0" d="M29.66,1.18c2.31,0.55,4.21,2.33,5.3,4.49c0.79,1.56,1.2,3.29,1.45,5.01c0.54,3.68,0.08,7.4,0.15,11.1
		c0.03,1.85,0.12,3.7,0.75,5.47c0.5,1.41,1.23,2.62,2.81,2.94c1.67,0.34,2.95-0.41,4-1.64c1.48-1.74,2.25-3.86,3.08-5.94
		c0.73-1.83,1.45-3.66,2.2-5.47c0.47-1.12,1.09-2.16,1.96-3.03c1.48-1.47,3.31-1.88,5.17-1.11c1.91,0.79,2.85,2.26,2.94,4.31
		c0.12,2.66-0.98,4.83-2.75,6.71c-1.02,1.08-2.11,2.1-3.15,3.17c-1.06,1.08-1.87,2.3-2.23,3.79c-0.22,0.9-0.14,1.73,0.56,2.35
		c0.76,0.68,1.68,0.94,2.71,0.6c1.17-0.38,2.01-1.22,2.82-2.09c1.69-1.83,3.23-3.8,5.24-5.31c0.96-0.72,2.02-1.23,3.19-1.49
		c1.87-0.41,3.59-0.15,4.89,1.38c1.29,1.53,1.63,3.29,0.97,5.2c-0.56,1.61-1.69,2.78-3.07,3.74c-2.65,1.85-5.72,2.58-8.8,3.25
		c-1.24,0.27-2.5,0.5-3.67,1.03c-1.27,0.57-2.31,1.35-2.46,2.88c-0.15,1.57,0.71,2.58,1.91,3.37c1.75,1.15,3.74,1.69,5.74,2.22
		c1.84,0.49,3.58,1.12,4.94,2.54c1.74,1.8,2.15,3.93,1.13,5.99c-1.01,2.02-3.3,3.16-5.63,2.85c-1.85-0.25-3.29-1.11-4.4-2.61
		c-1.41-1.9-2.79-3.83-4.42-5.55c-0.61-0.64-1.25-1.24-2-1.71c-1-0.62-2.05-0.99-3.14-0.24c-1.12,0.77-1.57,1.9-1.46,3.23
		c0.12,1.38,0.65,2.64,1.36,3.82c1.07,1.76,2.25,3.46,3.25,5.26c1.31,2.37,2.16,4.9,1.76,7.67c-0.41,2.82-2.31,6.68-5.66,6.65
		c-1.67-0.01-3.26-0.4-4.64-1.36c-3.43-2.38-4.22-7.98-3.28-11.71c0.62-2.47,1.17-4.97,1.06-7.56c-0.09-2.17-1.22-3.08-3.36-2.56
		c-1.52,0.37-2.76,1.24-3.89,2.28c-1.46,1.35-2.6,2.97-3.85,4.5c-1.04,1.27-2.06,2.54-3.33,3.61c-4.21,3.55-11.32,1.69-14.64-2.31
		c-1.9-2.29-1.86-5.41-0.64-8.01c1.11-2.36,3.15-4.38,5.64-5.23c0.9-0.31,1.83-0.49,2.78-0.56c2.28-0.17,4.54,0.15,6.82,0.04
		c1.73-0.08,3.29-0.6,4.65-1.64c1.47-1.12,1.35-2.49-0.26-3.38c-1.4-0.78-2.97-1.08-4.5-1.45c-3.05-0.73-6.18-0.92-9.29-1.28
		C13.06,39,9.78,38.57,6.7,37.19c-1.84-0.83-3.36-2.05-4.64-3.59c-1.5-1.8-1.77-4.84-1.21-7.05c0.6-2.37,2.06-4.39,3.98-5.88
		c2.39-1.85,4.97-2.09,7.71-0.83c1.51,0.69,2.85,1.64,4.07,2.74c1.42,1.28,2.82,2.59,4.17,3.94c1.65,1.66,3.4,3.21,5.31,4.58
		c0.87,0.62,1.79,1.16,2.82,1.45c1.47,0.41,2.57-0.17,3.11-1.6c0.6-1.6,0.42-3.17-0.28-4.69c-1-2.18-2.5-4.02-4.14-5.74
		c-2.37-2.48-4.48-5.13-5.65-8.41c-0.76-2.14-1-4.33-0.41-6.54c0.73-2.72,3.53-4.4,6.22-4.56C28.41,0.97,29.05,1.03,29.66,1.18"/>
</g>
</svg>
